<?xml version="1.0" encoding="UTF-8"?>
<svg id="Layer_1" data-name="Layer 1" xmlns="http://www.w3.org/2000/svg" viewBox="0 0 300 300">
  <defs>
    <style>
      .cls-1 {
        fill: #fff;
        stroke-width: 0px;
      }
    </style>
  </defs>
  <g>
    <path class="cls-1" d="m63.23,299.5V85.69h182.46v213.81H63.23ZM225.87,105.59c-4.44,0-8.05,3.61-8.05,8.05v163.72c0,4.44,3.61,8.05,8.05,8.05s8.05-3.61,8.05-8.05V113.64c0-4.44-3.61-8.05-8.05-8.05Zm-24,0c-4.44,0-8.05,3.61-8.05,8.05v163.72c0,4.44,3.61,8.05,8.05,8.05s8.05-3.61,8.05-8.05V113.64c0-4.44-3.61-8.05-8.05-8.05Zm-24,0c-4.44,0-8.05,3.61-8.05,8.05v163.72c0,4.44,3.61,8.05,8.05,8.05s8.05-3.61,8.05-8.05V113.64c0-4.44-3.61-8.05-8.05-8.05Zm-24,0c-4.44,0-8.05,3.61-8.05,8.05v163.72c0,4.44,3.61,8.05,8.05,8.05s8.05-3.61,8.05-8.05V113.64c0-4.44-3.61-8.05-8.05-8.05Zm-24,0c-4.44,0-8.05,3.61-8.05,8.05v163.72c0,4.44,3.61,8.05,8.05,8.05s8.05-3.61,8.05-8.05V113.64c0-4.44-3.61-8.05-8.05-8.05Zm-24,0c-4.44,0-8.05,3.61-8.05,8.05v163.72c0,4.44,3.61,8.05,8.05,8.05s8.05-3.61,8.05-8.05V113.64c0-4.44-3.61-8.05-8.05-8.05Zm-24,0c-4.44,0-8.05,3.61-8.05,8.05v163.72c0,4.44,3.61,8.05,8.05,8.05s8.05-3.61,8.05-8.05V113.64c0-4.44-3.61-8.05-8.05-8.05Z"/>
    <path class="cls-1" d="m245.19,86.19v212.81H63.73V86.19h181.46m-19.32,199.72c4.71,0,8.55-3.83,8.55-8.55V113.64c0-4.71-3.83-8.55-8.55-8.55s-8.55,3.83-8.55,8.55v163.72c0,4.71,3.83,8.55,8.55,8.55m-24,0c4.71,0,8.55-3.83,8.55-8.55V113.64c0-4.71-3.83-8.55-8.55-8.55s-8.55,3.83-8.55,8.55v163.72c0,4.71,3.83,8.55,8.55,8.55m-24,0c4.71,0,8.55-3.83,8.55-8.55V113.64c0-4.71-3.83-8.55-8.55-8.55s-8.55,3.83-8.55,8.55v163.72c0,4.71,3.83,8.55,8.55,8.55m-24,0c4.71,0,8.55-3.83,8.55-8.55V113.64c0-4.71-3.83-8.55-8.55-8.55s-8.55,3.83-8.55,8.55v163.72c0,4.71,3.83,8.55,8.55,8.55m-24,0c4.71,0,8.55-3.83,8.55-8.55V113.64c0-4.71-3.83-8.55-8.55-8.55s-8.55,3.83-8.55,8.55v163.72c0,4.71,3.83,8.55,8.55,8.55m-24,0c4.71,0,8.55-3.83,8.55-8.55V113.64c0-4.71-3.83-8.55-8.55-8.55s-8.55,3.83-8.55,8.55v163.72c0,4.71,3.83,8.55,8.55,8.55m-24,0c4.71,0,8.55-3.83,8.55-8.55V113.64c0-4.71-3.83-8.55-8.55-8.55s-8.55,3.83-8.55,8.55v163.72c0,4.71,3.83,8.55,8.55,8.55M246.19,85.19H62.73v214.81h183.46V85.19h0Zm-20.32,199.72c-4.17,0-7.55-3.38-7.55-7.55V113.64c0-4.17,3.38-7.55,7.55-7.55s7.55,3.38,7.55,7.55v163.72c0,4.17-3.38,7.55-7.55,7.55h0Zm-24,0c-4.17,0-7.55-3.38-7.55-7.55V113.64c0-4.17,3.38-7.55,7.55-7.55s7.55,3.38,7.55,7.55v163.72c0,4.17-3.38,7.55-7.55,7.55h0Zm-24,0c-4.17,0-7.55-3.38-7.55-7.55V113.64c0-4.17,3.38-7.55,7.55-7.55s7.55,3.38,7.55,7.55v163.72c0,4.17-3.38,7.55-7.55,7.55h0Zm-24,0c-4.17,0-7.55-3.38-7.55-7.55V113.64c0-4.17,3.38-7.55,7.55-7.55s7.55,3.38,7.55,7.55v163.72c0,4.17-3.38,7.55-7.55,7.55h0Zm-24,0c-4.17,0-7.55-3.38-7.55-7.55V113.64c0-4.17,3.38-7.55,7.55-7.55s7.55,3.38,7.55,7.55v163.72c0,4.17-3.38,7.55-7.55,7.55h0Zm-24,0c-4.17,0-7.55-3.38-7.55-7.55V113.64c0-4.17,3.38-7.55,7.55-7.55s7.55,3.38,7.55,7.55v163.72c0,4.17-3.38,7.55-7.55,7.55h0Zm-24,0c-4.17,0-7.55-3.38-7.55-7.55V113.64c0-4.17,3.38-7.55,7.55-7.55s7.55,3.38,7.55,7.55v163.72c0,4.17-3.38,7.55-7.55,7.55h0Z"/>
  </g>
  <g>
    <path class="cls-1" d="m54.95,50.45c-2.22-8.96,31.15-25.37,75.98-37.37l.56-.15-.23-.53c-.45-1.03-.68-2.13-.68-3.26,0-4.53,3.68-8.21,8.21-8.21,4.26,0,7.85,3.33,8.18,7.57l.04.58.57-.13C171.5,3.5,193.54.5,209.66.5c13.47,0,21.42,2.15,22.39,6.05l7.7,31.07L62.65,81.52l-7.7-31.07ZM214.54,12.57c-.5,0-1,.06-1.49.19L69.46,49.61c-1.55.4-2.85,1.37-3.66,2.75-.81,1.38-1.04,2.99-.65,4.53l1.04,4.06c.68,2.65,3.06,4.5,5.79,4.5.5,0,1-.06,1.49-.19L217.07,28.41c3.2-.82,5.13-4.09,4.31-7.28l-1.04-4.06c-.68-2.65-3.06-4.5-5.79-4.5Z"/>
    <path class="cls-1" d="m209.66,1c13.03,0,21.01,2.07,21.9,5.67l7.58,30.59L63.02,80.91l-7.58-30.59c-1.85-7.45,26.54-23.63,75.62-36.77l1.12-.3-.46-1.06c-.42-.97-.63-2-.63-3.06,0-4.25,3.46-7.71,7.71-7.71,4,0,7.37,3.12,7.68,7.11l.09,1.16,1.13-.26c23.89-5.44,45.9-8.44,61.98-8.44M71.99,65.95c.54,0,1.09-.07,1.62-.2L217.19,28.89c3.46-.89,5.56-4.43,4.67-7.89l-1.04-4.06c-.74-2.87-3.32-4.87-6.28-4.87-.54,0-1.09.07-1.62.2L69.34,49.12c-1.68.43-3.09,1.49-3.97,2.98s-1.13,3.24-.7,4.91l1.04,4.06c.74,2.87,3.32,4.87,6.28,4.87M209.66,0C194.1,0,171.96,2.88,147.46,8.46c-.34-4.49-4.09-8.04-8.67-8.04-4.81,0-8.71,3.9-8.71,8.71,0,1.23.26,2.4.72,3.46-45.09,12.07-78.66,28.58-76.33,37.98l7.82,31.56,178.07-44.14-7.82-31.56C231.46,2.11,222.96,0,209.66,0h0ZM71.99,64.95c-2.44,0-4.67-1.65-5.31-4.12l-1.04-4.06c-.75-2.93,1.01-5.92,3.95-6.68L213.18,13.24c.46-.12.92-.17,1.37-.17,2.44,0,4.67,1.65,5.31,4.12l1.04,4.06c.75,2.93-1.01,5.92-3.95,6.68l-143.59,36.85c-.46.12-.92.17-1.37.17h0Z"/>
  </g>
</svg>