<?xml version="1.0" encoding="UTF-8"?>
<svg id="Layer_1" data-name="Layer 1" xmlns="http://www.w3.org/2000/svg" viewBox="0 0 300 300">
  <defs>
    <style>
      .cls-1 {
        fill: #fff;
        stroke-width: 0px;
      }
    </style>
  </defs>
  <path class="cls-1" d="M97.58,11c44.98,0,81.58,36.6,81.58,81.58v196.21H16V92.58C16,47.6,52.6,11,97.58,11M97.58,0h0C46.45,0,5,41.45,5,92.58v207.21h185.16V92.58C190.16,41.45,148.71,0,97.58,0h0Z"/>
  <g>
    <path class="cls-1" d="M122.91,175.27h162.23c2.95,0,5.34,2.39,5.34,5.34v6.04c0,2.95-2.39,5.34-5.34,5.34H122.91c-2.95,0-5.34-2.39-5.34-5.34v-6.04c0-2.95,2.39-5.34,5.34-5.34Z"/>
    <path class="cls-1" d="M284.97,180.77v5.71H123.07v-5.71h161.9M285.14,169.77H122.91c-5.99,0-10.84,4.85-10.84,10.84v6.04c0,5.99,4.85,10.84,10.84,10.84h162.23c5.99,0,10.84-4.85,10.84-10.84v-6.04c0-5.99-4.85-10.84-10.84-10.84h0Z"/>
  </g>
  <g>
    <path class="cls-1" d="M123.24,225.09c-1.74,0-3.37-.68-4.6-1.9l-36.99-36.99c-2.53-2.54-2.53-6.66,0-9.19l4.61-4.61c1.23-1.23,2.86-1.9,4.6-1.9s3.37.68,4.6,1.9l36.99,36.99c1.23,1.23,1.9,2.86,1.9,4.6s-.68,3.37-1.9,4.59l-4.61,4.61c-1.23,1.23-2.86,1.9-4.6,1.9Z"/>
    <path class="cls-1" d="M90.86,175.99c.27,0,.51.1.71.29l36.99,36.99c.19.19.29.43.29.71s-.1.51-.29.71l-4.61,4.61c-.19.19-.43.29-.71.29s-.51-.1-.71-.29l-36.99-36.99c-.39-.39-.39-1.02,0-1.41l4.61-4.61c.19-.19.43-.29.71-.29M90.86,164.99c-3.07,0-6.14,1.17-8.49,3.51l-4.61,4.61c-4.69,4.69-4.69,12.28,0,16.97l36.99,36.99c2.34,2.34,5.41,3.51,8.49,3.51s6.14-1.17,8.49-3.51l4.61-4.61c4.69-4.69,4.69-12.28,0-16.97l-36.99-36.99c-2.34-2.34-5.41-3.51-8.49-3.51h0Z"/>
  </g>
  <g>
    <path class="cls-1" d="M92.13,190.75c-1.74,0-3.37-.68-4.6-1.9l-4.61-4.61c-2.53-2.54-2.53-6.66,0-9.19l36.99-36.99c1.23-1.23,2.86-1.9,4.6-1.9s3.37.68,4.6,1.9l4.61,4.61c2.53,2.53,2.53,6.66,0,9.19l-36.99,36.99c-1.23,1.23-2.86,1.9-4.6,1.9Z"/>
    <path class="cls-1" d="M124.51,141.65c.27,0,.51.1.71.29l4.61,4.61c.39.39.39,1.02,0,1.41l-36.99,36.99c-.19.19-.43.29-.71.29s-.51-.1-.71-.29l-4.61-4.61c-.19-.19-.29-.43-.29-.71s.1-.51.29-.71l36.99-36.99c.19-.19.43-.29.71-.29M124.51,130.65c-3.07,0-6.14,1.17-8.49,3.51l-36.99,36.99c-4.69,4.69-4.69,12.28,0,16.97l4.61,4.61c2.34,2.34,5.41,3.51,8.49,3.51s6.14-1.17,8.49-3.51l36.99-36.99c4.69-4.69,4.69-12.28,0-16.97l-4.61-4.61c-2.34-2.34-5.41-3.51-8.49-3.51h0Z"/>
  </g>
</svg>