<?xml version="1.0" encoding="UTF-8"?>
<svg id="Layer_1" data-name="Layer 1" xmlns="http://www.w3.org/2000/svg" viewBox="0 0 300 300">
  <defs>
    <style>
      .cls-1 {
        fill: #fff;
        stroke-width: 0px;
      }
    </style>
  </defs>
  <path class="cls-1" d="M27.98,162.81C11.74,146.51,2.79,124.87,2.79,101.86,2.79,54.24,41.53,15.5,89.15,15.5c23.01,0,44.66,8.95,60.96,25.19l.15.15h.41l.15-.15c16.3-16.24,37.95-25.19,60.96-25.19,47.62,0,86.36,38.74,86.36,86.36,0,23.01-8.95,44.66-25.19,60.96l-122.48,122.48L27.98,162.81Z"/>
  <path class="cls-1" d="M211.77,16c47.34,0,85.86,38.51,85.86,85.86,0,22.88-8.89,44.4-25.04,60.6l-.36.36-121.76,121.76L29.05,163.18h0s-.72-.72-.72-.72C12.19,146.25,3.29,124.73,3.29,101.86,3.29,54.51,41.81,16,89.15,16c22.88,0,44.4,8.89,60.6,25.04l.36.35.35.35.71-.7c16.2-16.15,37.73-25.04,60.6-25.04M211.77,15c-23.93,0-45.6,9.68-61.31,25.33h0s0,0,0,0c-15.71-15.66-37.38-25.33-61.31-25.33C41.18,15,2.29,53.89,2.29,101.86c0,23.93,9.68,45.6,25.33,61.31h0s122.83,122.83,122.83,122.83l122.83-122.83h0c15.66-15.71,25.33-37.38,25.33-61.31,0-47.97-38.89-86.86-86.86-86.86h0Z"/>
</svg>