<?xml version="1.0" encoding="UTF-8"?>
<svg id="Layer_1" data-name="Layer 1" xmlns="http://www.w3.org/2000/svg" viewBox="0 0 300 300">
  <defs>
    <style>
      .cls-1 {
        stroke-width: 0px;
      }
    </style>
  </defs>
  <g>
    <circle class="cls-1" cx="89.15" cy="101.86" r="86.36" transform="translate(-32.19 41.87) rotate(-22.5)"/>
    <path class="cls-1" d="m89.15,16c47.34,0,85.86,38.51,85.86,85.86s-38.51,85.86-85.86,85.86S3.29,149.2,3.29,101.86,41.81,16,89.15,16m0-1C41.18,15,2.29,53.89,2.29,101.86s38.89,86.86,86.86,86.86,86.86-38.89,86.86-86.86S137.12,15,89.15,15h0Z"/>
  </g>
  <g>
    <circle class="cls-1" cx="211.77" cy="101.86" r="86.36"/>
    <path class="cls-1" d="m211.77,16c47.34,0,85.86,38.51,85.86,85.86s-38.51,85.86-85.86,85.86-85.86-38.51-85.86-85.86S164.43,16,211.77,16m0-1c-47.97,0-86.86,38.89-86.86,86.86s38.89,86.86,86.86,86.86,86.86-38.89,86.86-86.86S259.74,15,211.77,15h0Z"/>
  </g>
  <g>
    <rect class="cls-1" x="64.1" y="76.81" width="172.71" height="172.71" transform="translate(-71.31 154.18) rotate(-45)"/>
    <path class="cls-1" d="m150.46,41.75l121.42,121.42-121.42,121.42L29.04,163.17l121.42-121.42m0-1.41L27.63,163.17l122.83,122.83,122.83-122.83-122.83-122.83h0Z"/>
  </g>
</svg>