<?xml version="1.0" encoding="UTF-8"?>
<svg id="Layer_1" data-name="Layer 1" xmlns="http://www.w3.org/2000/svg" viewBox="0 0 300 300">
  <defs>
    <style>
      .cls-1, .cls-2 {
        stroke-width: 0px;
      }

      .cls-2 {
        fill: #fff;
      }
    </style>
  </defs>
  <g>
    <circle class="cls-2" cx="91" cy="92" r="78"/>
    <path class="cls-1" d="m91,23c38.05,0,69,30.95,69,69s-30.95,69-69,69S22,130.05,22,92,52.95,23,91,23m0-18C42.95,5,4,43.95,4,92s38.95,87,87,87,87-38.95,87-87S139.05,5,91,5h0Z"/>
  </g>
  <g>
    <path class="cls-1" d="m267.02,288.02c-4.67,0-9.07-1.82-12.38-5.13l-113.8-113.8c-3.31-3.31-5.13-7.7-5.13-12.38s1.82-9.07,5.13-12.37,7.7-5.13,12.37-5.13,9.07,1.82,12.37,5.13l113.8,113.8c3.31,3.31,5.13,7.7,5.13,12.38s-1.82,9.07-5.13,12.37-7.7,5.13-12.37,5.13Z"/>
    <path class="cls-1" d="m153.22,139.72c4.54,0,8.81,1.77,12.02,4.98l113.8,113.8c3.21,3.21,4.98,7.48,4.98,12.02s-1.77,8.81-4.98,12.02c-3.21,3.21-7.48,4.98-12.02,4.98s-8.81-1.77-12.02-4.98l-113.8-113.8c-6.63-6.63-6.63-17.41,0-24.04,3.21-3.21,7.48-4.98,12.02-4.98m0-1c-4.61,0-9.21,1.76-12.73,5.27h0c-7.03,7.03-7.03,18.43,0,25.46l113.8,113.8c3.51,3.51,8.12,5.27,12.73,5.27s9.21-1.76,12.73-5.27c7.03-7.03,7.03-18.43,0-25.46l-113.8-113.8c-3.51-3.51-8.12-5.27-12.73-5.27h0Z"/>
  </g>
</svg>