<?xml version="1.0" encoding="UTF-8"?>
<svg id="Layer_1" data-name="Layer 1" xmlns="http://www.w3.org/2000/svg" viewBox="0 0 300 300">
  <defs>
    <style>
      .cls-1 {
        fill: #fff;
        stroke-width: 0px;
      }
    </style>
  </defs>
  <g>
    <path class="cls-1" d="m61.76,267.34c-1.13,0-2.19-.44-2.98-1.24l-26.73-26.73c-1.65-1.65-1.65-4.32,0-5.97L235.51,29.95c.8-.8,1.86-1.24,2.98-1.24s2.19.44,2.99,1.24l26.73,26.73c.8.8,1.24,1.86,1.24,2.98s-.44,2.19-1.24,2.98l-203.46,203.46c-.8.8-1.86,1.24-2.98,1.24Z"/>
    <path class="cls-1" d="m238.49,29.21c.99,0,1.93.39,2.63,1.09l26.73,26.73c1.45,1.45,1.45,3.81,0,5.26l-203.46,203.46c-.7.7-1.64,1.09-2.63,1.09s-1.93-.39-2.63-1.09l-26.73-26.73c-1.45-1.45-1.45-3.81,0-5.26L235.86,30.3c.7-.7,1.64-1.09,2.63-1.09m0-1c-1.21,0-2.42.46-3.34,1.38L31.69,233.05c-1.84,1.84-1.84,4.83,0,6.68l26.73,26.73c.92.92,2.13,1.38,3.34,1.38s2.42-.46,3.34-1.38L268.56,63c1.84-1.84,1.84-4.83,0-6.68l-26.73-26.73c-.92-.92-2.13-1.38-3.34-1.38h0Z"/>
  </g>
  <g>
    <path class="cls-1" d="m10.75,290.66c-1.07,0-2.08-.55-2.7-1.46-.61-.9-.73-2-.32-3.03l18.65-46.73,32.33,32.33-46.73,18.65c-.4.16-.82.24-1.23.24h0Z"/>
    <path class="cls-1" d="m26.56,240.33l31.26,31.26-46.03,18.36c-.34.14-.7.21-1.04.21-.9,0-1.76-.46-2.28-1.24-.52-.76-.61-1.69-.27-2.56l18.36-46.03m-.37-1.78l-18.93,47.44c-1.04,2.6.98,5.17,3.48,5.17.46,0,.94-.09,1.42-.28l47.44-18.93-33.41-33.41h0Z"/>
  </g>
  <g>
    <path class="cls-1" d="m274.05,54.74c-1.33,0-2.58-.52-3.52-1.46l-25.66-25.66c-.94-.94-1.46-2.19-1.46-3.52s.52-2.58,1.46-3.52l13.81-13.81c.94-.94,2.19-1.46,3.52-1.46s2.58.52,3.52,1.46l25.66,25.66c1.94,1.94,1.94,5.1,0,7.04l-13.81,13.81c-.94.94-2.19,1.46-3.52,1.46Z"/>
    <path class="cls-1" d="m262.2,5.81c1.2,0,2.32.47,3.17,1.31l25.66,25.66c.85.85,1.31,1.97,1.31,3.17s-.47,2.32-1.31,3.17l-13.81,13.81c-.85.85-1.97,1.31-3.17,1.31s-2.32-.47-3.17-1.31l-25.66-25.66c-1.75-1.75-1.75-4.59,0-6.33l13.81-13.81c.85-.85,1.97-1.31,3.17-1.31m0-1c-1.4,0-2.8.53-3.87,1.6l-13.81,13.81c-2.14,2.14-2.14,5.61,0,7.75l25.66,25.66c1.07,1.07,2.47,1.6,3.87,1.6s2.8-.53,3.87-1.6l13.81-13.81c2.14-2.14,2.14-5.61,0-7.75l-25.66-25.66c-1.07-1.07-2.47-1.6-3.87-1.6h0Z"/>
  </g>
</svg>