<?xml version="1.0" encoding="UTF-8"?>
<svg id="Layer_1" data-name="Layer 1" xmlns="http://www.w3.org/2000/svg" xmlns:xlink="http://www.w3.org/1999/xlink" viewBox="0 0 1934 784">
  <defs>
    <style>
      .cls-1 {
        stroke-width: 0px;
      }

      .cls-1, .cls-2 {
        fill: #0a7e8b;
      }

      .cls-2 {
        stroke: #fff;
        stroke-miterlimit: 10;
        stroke-width: 7px;
      }

      .cls-3 {
        font-family: CenturyGothic-Bold, 'Century Gothic';
        font-size: 557.71px;
        font-weight: 700;
      }
    </style>
    <symbol id="HilfeHeart" viewBox="0 0 833 757.93">
      <g>
        <path class="cls-2" d="m259.83,665.62h0c-26.52-34.48-7.96-63.65,15.91-84.87.05-.04-.05.04,0,0l180.35-161.79-180.35,161.79s-15.87,10.58-15.91,10.61c-28.18,21.44-57.06,12.18-76.34-17.11h0c-18.1-27.48-8.71-59.16,17.99-78.37.02-.01-.02.01,0,0l206.88-167.09-206.88,167.09s.03-.02,0,0c-25.27,18.13-59.34,21.07-82.22,0h0c-17.33-15.97-16.17-54.46,0-71.61L376.73,85.99c103.58-103.58,271.51-103.58,375.08,0,103.57,103.57,103.58,271.48.02,375.06-.01.01-.03.03-.04.04l-338.14,281.44c-21.48,19.19-66.43,14.17-84.87-7.96-26.52-31.83-10.61-47.74,10.61-66.31.03-.04,68.92-55.66,68.96-55.7l82.22-74.26c-13.43,19.91-91.96,82.37-153.83,129.96-34.48,26.52-55.7,21.22-76.92-2.65Z"/>
        <path class="cls-2" d="m106.96,435.05c-15.14,12.46-37.56,9.75-49.44-5.84C-21.68,325.24-13.79,176.16,81.18,81.18c103.21-103.21,270.32-103.58,373.98-1.09.73.72,1.5,1.42,2.3,2.07l237.66,193.39c13.94,11.34,16.83,31.49,6.63,46.29h0c-10,14.51-29.32,19.14-44.81,10.75l-236.15-128c-12.34-6.69-27.5-5.23-38.33,3.69L106.96,435.05Z"/>
        <g>
          <path class="cls-2" d="m501.8,726.89h0c-18.64,18.64-48.87,18.64-67.52,0l-80.64-80.64c-18.64-18.64-18.64-48.87,0-67.52h0c18.64-18.64,48.87-18.64,67.52,0l80.64,80.64c18.64,18.64,18.64,48.87,0,67.52Z"/>
          <path class="cls-2" d="m569.31,659.37h0c-18.64,18.64-48.87,18.64-67.52,0l-105.02-105.02c-18.64-18.64-18.64-48.87,0-67.52h0c18.64-18.64,48.87-18.64,67.52,0l105.02,105.02c18.64,18.64,18.64,48.87,0,67.52Z"/>
          <path class="cls-2" d="m704.34,524.34h0c-18.64,18.64-48.87,18.64-67.52,0l-105.02-105.02c-18.64-18.64-18.64-48.87,0-67.52h0c18.64-18.64,48.87-18.64,67.52,0l105.02,105.02c18.64,18.64,18.64,48.87,0,67.52Z"/>
          <path class="cls-2" d="m636.83,591.86h0c-18.64,18.64-48.87,18.64-67.52,0l-125.65-125.65c-18.64-18.64-18.64-48.87,0-67.52h0c18.64-18.64,48.87-18.64,67.52,0l125.65,125.65c18.64,18.64,18.64,48.87,0,67.52Z"/>
        </g>
      </g>
    </symbol>
  </defs>
  <text class="cls-3" transform="translate(784.67 766.57)"><tspan x="0" y="0">Hilfe</tspan></text>
  <circle class="cls-1" cx="1230.5" cy="396.5" r="48.5"/>
  <use width="833" height="757.93" transform="translate(4.01 9)" xlink:href="#HilfeHeart"/>
</svg>