<?xml version="1.0" encoding="UTF-8"?>
<svg id="Layer_1" data-name="Layer 1" xmlns="http://www.w3.org/2000/svg" viewBox="0 0 829.67 860.54">
  <defs>
    <style>
      .cls-1 {
        fill: #0a7e8b;
      }

      .cls-1, .cls-2 {
        stroke-width: 0px;
      }

      .cls-2 {
        fill: #fff;
      }
    </style>
  </defs>
  <path class="cls-1" d="m731.54,82.94c-86.9-86.9-227.79-86.9-314.68,0-.55.55-1.07,1.1-1.61,1.65C328.72-1.44,188.88-1.33,102.58,84.97c-86.45,86.45-86.42,226.63.07,313.12.22.22.45.44.68.66,0,0,0,0,0,0,.05.04.1.09.15.13,6.32,6.25,12.92,12.05,19.76,17.39,46.65,42.1,99.69,97.44,150.51,168.07,74.7,103.83,117.75,203.35,143.05,277.42,26.24-71.63,68.03-163.87,135.46-261.17,55.4-79.94,113.42-142.11,163.56-188.68,5.41-4.47,10.66-9.23,15.73-14.3,86.9-86.9,86.9-227.79,0-314.68Z"/>
  <circle class="cls-2" cx="420.04" cy="304.76" r="78.02"/>
</svg>