<?xml version="1.0" encoding="UTF-8"?>
<svg id="Layer_1" data-name="Layer 1" xmlns="http://www.w3.org/2000/svg" viewBox="0 0 300 300">
  <defs>
    <style>
      .cls-1 {
        fill: #fff;
        stroke-width: 0px;
      }
    </style>
  </defs>
  <path class="cls-1" d="m211.77,46c30.8,0,55.86,25.06,55.86,55.86,0,14.88-5.79,28.88-16.29,39.43l-.68.69-100.19,100.19-100.17-100.17-.71-.71c-10.51-10.54-16.29-24.54-16.29-39.43,0-30.8,25.06-55.86,55.86-55.86,14.88,0,28.88,5.79,39.43,16.29l.72.72,21.13,21.13.04-.04.04.04,21.1-21.1.74-.74c10.54-10.51,24.54-16.29,39.43-16.29m0-31c-23.93,0-45.6,9.68-61.31,25.33h0s0,0,0,0c-15.71-15.66-37.38-25.33-61.31-25.33C41.18,15,2.29,53.89,2.29,101.86c0,23.93,9.68,45.6,25.33,61.31h0s122.83,122.83,122.83,122.83l122.83-122.83h0c15.66-15.71,25.33-37.38,25.33-61.31,0-47.97-38.89-86.86-86.86-86.86h0Z"/>
</svg>