<?xml version="1.0" encoding="UTF-8"?>
<svg id="Layer_1" data-name="Layer 1" xmlns="http://www.w3.org/2000/svg" viewBox="0 0 300 300">
  <defs>
    <style>
      .cls-1 {
        fill: none;
        stroke: #fff;
        stroke-miterlimit: 10;
        stroke-width: 17px;
      }

      .cls-2 {
        fill: #fff;
        stroke-width: 0px;
      }
    </style>
  </defs>
  <path class="cls-1" d="M222,94c0-39.21-31.79-71-71-71s-71,31.79-71,71"/>
  <g>
    <path class="cls-2" d="M71.71,284.5c-7.83,0-14.21-6.37-14.21-14.21V113.71c0-7.83,6.37-14.21,14.21-14.21h156.58c7.83,0,14.21,6.37,14.21,14.21v156.58c0,7.83-6.37,14.21-14.21,14.21H71.71ZM119.5,270h62v-82.23c5.83-7.12,9-15.97,9-25.27,0-22.06-17.94-40-40-40s-40,17.94-40,40c0,9.3,3.17,18.15,9,25.27v82.23Z"/>
    <path class="cls-2" d="M228.29,108c3.15,0,5.71,2.56,5.71,5.71v156.58c0,3.15-2.56,5.71-5.71,5.71h-38.29v-85.35c5.84-8.17,9-17.93,9-28.15,0-26.74-21.76-48.5-48.5-48.5s-48.5,21.76-48.5,48.5c0,10.22,3.16,19.98,9,28.15v85.35h-39.29c-3.15,0-5.71-2.56-5.71-5.71V113.71c0-3.15,2.56-5.71,5.71-5.71h156.58M228.29,91H71.71c-12.54,0-22.71,10.17-22.71,22.71v156.58c0,12.54,10.17,22.71,22.71,22.71h156.58c12.54,0,22.71-10.17,22.71-22.71V113.71c0-12.54-10.17-22.71-22.71-22.71h0ZM128,261.5v-76.96c-5.56-5.68-9-13.46-9-22.04,0-17.4,14.1-31.5,31.5-31.5s31.5,14.1,31.5,31.5c0,8.58-3.44,16.36-9,22.04v76.96h-45Z"/>
  </g>
</svg>