<?xml version="1.0" encoding="UTF-8"?>
<svg id="Layer_1" data-name="Layer 1" xmlns="http://www.w3.org/2000/svg" viewBox="0 0 300 300">
  <defs>
    <style>
      .cls-1 {
        fill: #fff;
        stroke-width: 0px;
      }
    </style>
  </defs>
  <path class="cls-1" d="m21.03,299.13c.92-48.67,77.68-147.82,78.46-148.82l.24-.31-.24-.31c-.78-.98-77.57-98.4-78.46-148.82l258.3,149.13L21.03,299.13Z"/>
  <path class="cls-1" d="m21.55,1.75l256.78,148.25L21.55,298.25c.76-19.99,14.23-51.42,39.09-91.11,19.39-30.96,39.04-56.27,39.24-56.52l.48-.62-.49-.62c-.2-.25-19.84-25.1-39.23-55.83C35.76,54.1,22.28,22.43,21.55,1.75M20.52,0c0,50.91,78.57,150,78.57,150,0,0-78.57,100.91-78.57,150,86.6-50,173.21-100,259.81-150L20.52,0h0Z"/>
</svg>